<svg width="92" height="92" viewBox="0 0 92 92" fill="none" xmlns="http://www.w3.org/2000/svg">
<g filter="url(#filter0_d_243_2528)">
<circle cx="46" cy="45" r="40" fill="white"/>
</g>
<path d="M57.4288 52.5627L55.9735 51.6907C55.5297 51.4254 55.0223 51.2852 54.5053 51.285H52.315C51.8666 51.2843 51.4201 51.3418 50.9866 51.4563L44.3873 53.2279C44.0317 53.326 43.705 53.5081 43.4346 53.7589C43.1642 54.0097 42.958 54.3219 42.8334 54.669L37.0287 51.5287C36.5579 51.2608 36.007 51.1698 35.4751 51.272C35.2745 51.3074 35.0799 51.3713 34.8973 51.4617C34.4846 51.6594 34.1422 51.9784 33.9157 52.376C33.7177 52.7222 33.6135 53.1142 33.6136 53.513C33.6105 53.9129 33.7135 54.3064 33.9118 54.6536C34.1102 55.0007 34.397 55.2892 34.743 55.4896L45.1465 61.7142C45.5983 61.994 46.1192 62.1422 46.6506 62.1422H54.702C55.0616 62.1424 55.4179 62.0745 55.7522 61.9422L57.4288 61.28V62.1422H63.1431V50.7136H57.4288V52.5627ZM55.3323 60.8793C55.1321 60.9583 54.9189 60.999 54.7037 60.9993H46.6506C46.3286 60.999 46.0132 60.9084 45.7402 60.7376L35.3226 54.5057C35.1487 54.4053 35.0045 54.2605 34.9047 54.0863C34.8049 53.912 34.7531 53.7144 34.7545 53.5136C34.7553 53.3131 34.8081 53.1162 34.9076 52.9422C35.0215 52.7448 35.1927 52.5868 35.3984 52.489C35.4889 52.4449 35.585 52.4137 35.6841 52.3964C35.7564 52.3829 35.8297 52.3761 35.9032 52.376C36.0996 52.3755 36.2927 52.4267 36.4632 52.5245L42.7575 55.9257C42.7648 55.9605 42.7648 55.9949 42.774 56.0297C43.0447 57.0272 43.9495 57.72 44.9833 57.7212C45.3014 57.692 45.6164 57.6358 45.9249 57.5532L51.8618 55.9645L51.5672 54.8604L45.6496 56.4421C45.3889 56.5021 45.0527 56.5707 44.9833 56.5766C44.7323 56.5771 44.4881 56.4949 44.2884 56.3427C44.0888 56.1906 43.9448 55.977 43.8786 55.7348C43.8602 55.6656 43.8493 55.5947 43.8454 55.5233C43.8454 55.5233 43.841 55.3849 43.8454 55.3364C43.8667 55.1029 43.9585 54.8815 44.1087 54.7014C44.2589 54.5214 44.4603 54.3913 44.6861 54.3285L51.2826 52.5637C51.6193 52.4736 51.9664 52.4279 52.315 52.4279H54.5053C54.8155 52.4279 55.12 52.5122 55.3858 52.6715L57.4288 53.8947V60.0507L55.3323 60.8793ZM58.5717 51.8565H62.0003V60.9993H58.5717V51.8565ZM52.4255 32.4279L49.3603 29.3629C48.8839 28.8837 48.3172 28.5039 47.693 28.2453C47.0688 27.9867 46.3995 27.8545 45.7238 27.8565H38.5396C38.0961 27.8572 37.6589 27.9604 37.2619 28.1581L35.9812 28.7987C35.7246 28.9278 35.4393 28.9896 35.1523 28.9781L34.5717 28.9578V27.8565H28.8574V40.4279H34.5717V38.7136H35.5433L35.889 38.9422C36.8564 39.5845 37.9826 39.947 39.1431 39.9895V47.285H63.1431V32.4279H52.4255ZM33.4288 39.285H30.0003V28.9993H33.4288V39.285ZM36.5215 37.9912L35.8858 37.5707H34.5717V30.1012L35.1105 30.1205C35.5888 30.1375 36.0638 30.0346 36.4922 29.821L37.7718 29.1804C38.0102 29.0613 38.273 28.9993 38.5396 28.9993H45.7237C46.2492 28.9978 46.7697 29.1005 47.2553 29.3016C47.7408 29.5027 48.1816 29.798 48.5521 30.1706L50.8094 32.4279H46.0941L44.7071 31.0412L43.8992 31.849L47.9358 35.8857C48.3842 36.3322 48.3856 37.0576 47.9392 37.5063C47.4925 37.9547 46.7671 37.9561 46.3186 37.5097L42.9472 34.1382L42.5472 34.4812C41.4425 35.4192 39.8278 35.4432 38.6956 34.5381L38.3644 34.2697L37.6443 35.1575L37.9791 35.429C38.3292 35.7089 38.7223 35.9304 39.1431 36.085V38.8462C38.2078 38.8047 37.3015 38.5091 36.5215 37.9913V37.9912ZM44.6501 37.4563L45.5123 38.3188C46.4073 39.2005 47.8443 39.2019 48.7408 38.3216C47.9021 39.6204 48.233 41.349 49.4922 42.246C50.7514 43.143 52.4933 42.891 53.4467 41.6742C54.4001 40.4572 54.228 38.7055 53.0555 37.6977C51.8833 36.6899 50.1255 36.7822 49.0656 37.9072C49.2579 37.6051 49.3753 37.2613 49.4079 36.9046C49.4404 36.5478 49.3873 36.1885 49.2528 35.8565H56.9049C57.1506 37.2942 58.2768 38.4204 59.7145 38.6662V41.0467C58.2768 41.2925 57.1506 42.4187 56.9048 43.8565H45.3814C45.1356 42.4187 44.0095 41.2925 42.5717 41.0467V38.6662C43.3884 38.5286 44.1272 38.0985 44.6501 37.4563H44.6501ZM49.4288 39.8565C49.4288 38.9097 50.1964 38.1422 51.1431 38.1422C52.0898 38.1422 52.8574 38.9097 52.8574 39.8565C52.8574 40.8032 52.0898 41.5707 51.1431 41.5707C50.1964 41.5707 49.4288 40.8032 49.4288 39.8565ZM62.0003 46.1422H40.286V36.3243C41.1919 36.3923 42.0951 36.1615 42.8574 35.6673L43.8323 36.6422C43.6208 36.9295 43.3449 37.1631 43.0267 37.3244C42.7086 37.4857 42.357 37.5701 42.0003 37.5707H41.4288V42.1422H42.0003C43.2626 42.1422 44.286 43.1656 44.286 44.4279V44.9993H58.0003V44.4279C58.0003 43.1656 59.0237 42.1422 60.286 42.1422H60.8574V37.5707H60.286C59.0237 37.5707 58.0003 36.5473 58.0003 35.285V34.7136H48.3797L47.2368 33.5707H62.0003V46.1422Z" fill="#141C28"/>
<defs>
<filter id="filter0_d_243_2528" x="0" y="0" width="92" height="92" filterUnits="userSpaceOnUse" color-interpolation-filters="sRGB">
<feFlood flood-opacity="0" result="BackgroundImageFix"/>
<feColorMatrix in="SourceAlpha" type="matrix" values="0 0 0 0 0 0 0 0 0 0 0 0 0 0 0 0 0 0 127 0" result="hardAlpha"/>
<feOffset dy="1"/>
<feGaussianBlur stdDeviation="3"/>
<feComposite in2="hardAlpha" operator="out"/>
<feColorMatrix type="matrix" values="0 0 0 0 0 0 0 0 0 0 0 0 0 0 0 0 0 0 0.1 0"/>
<feBlend mode="normal" in2="BackgroundImageFix" result="effect1_dropShadow_243_2528"/>
<feBlend mode="normal" in="SourceGraphic" in2="effect1_dropShadow_243_2528" result="shape"/>
</filter>
</defs>
</svg>
