<svg width="20" height="15" viewBox="0 0 20 15" fill="none" xmlns="http://www.w3.org/2000/svg">
<path d="M5.2 13.0348C5.11791 13.035 5.0366 13.0189 4.96078 12.9874C4.88496 12.9559 4.81615 12.9097 4.75833 12.8514C3.30167 11.3956 2.5 9.46059 2.5 7.40143C2.5 5.34226 3.30167 3.40726 4.75833 1.95143C4.81639 1.89337 4.88531 1.84732 4.96116 1.8159C5.03702 1.78448 5.11831 1.76831 5.20042 1.76831C5.28252 1.76831 5.36382 1.78448 5.43967 1.8159C5.51552 1.84732 5.58444 1.89337 5.6425 1.95143C5.70056 2.00948 5.74661 2.0784 5.77803 2.15426C5.80945 2.23011 5.82562 2.31141 5.82562 2.39351C5.82562 2.47561 5.80945 2.55691 5.77803 2.63276C5.74661 2.70862 5.70056 2.77754 5.6425 2.83559C4.42167 4.05476 3.75 5.67643 3.75 7.40143C3.75 9.12643 4.42167 10.7481 5.6425 11.9673C5.73013 12.0547 5.78984 12.1661 5.81405 12.2875C5.83826 12.4089 5.82588 12.5347 5.77848 12.6491C5.73108 12.7634 5.6508 12.8611 5.54782 12.9298C5.44483 12.9984 5.32378 13.035 5.2 13.0348Z" fill="#A50808"/>
<path d="M3.43333 14.8015C3.35124 14.8017 3.26993 14.7856 3.19411 14.7541C3.1183 14.7226 3.04948 14.6764 2.99167 14.6181C1.0625 12.689 0 10.1265 0 7.40145C0 4.67645 1.0625 2.11395 2.99167 0.184784C3.04972 0.126728 3.11864 0.0806765 3.1945 0.0492573C3.27035 0.017838 3.35165 0.00166674 3.43375 0.00166674C3.51585 0.00166674 3.59715 0.017838 3.673 0.0492573C3.74886 0.0806765 3.81778 0.126728 3.87583 0.184784C3.93389 0.242839 3.97994 0.31176 4.01136 0.387613C4.04278 0.463466 4.05895 0.544765 4.05895 0.626867C4.05895 0.70897 4.04278 0.790268 4.01136 0.866121C3.97994 0.941974 3.93389 1.0109 3.87583 1.06895C2.1825 2.76145 1.25 5.01062 1.25 7.40145C1.25 9.79228 2.1825 12.0415 3.875 13.7348C3.9623 13.8222 4.02173 13.9335 4.0458 14.0547C4.06987 14.1758 4.0575 14.3014 4.01024 14.4156C3.96298 14.5297 3.88296 14.6273 3.78028 14.6959C3.6776 14.7646 3.55687 14.8013 3.43333 14.8015ZM16.5667 14.8015C16.443 14.8015 16.322 14.7649 16.2192 14.6961C16.1163 14.6274 16.0362 14.5297 15.9889 14.4154C15.9416 14.3011 15.9293 14.1753 15.9535 14.054C15.9777 13.9327 16.0374 13.8213 16.125 13.734C17.8183 12.0406 18.75 9.79228 18.75 7.40062C18.75 5.00895 17.8175 2.76062 16.125 1.06728C16.0078 0.950036 15.9419 0.791014 15.9419 0.6252C15.9419 0.459387 16.0078 0.300365 16.125 0.183117C16.2422 0.0658692 16.4013 0 16.5671 0C16.7329 0 16.8919 0.0658692 17.0092 0.183117C18.9375 2.11395 20 4.67645 20 7.40145C20 10.1265 18.9375 12.689 17.0083 14.6181C16.9505 14.6764 16.8817 14.7226 16.8059 14.7541C16.7301 14.7856 16.6488 14.8017 16.5667 14.8015Z" fill="#A50808"/>
<path d="M14.7999 13.0348C14.6762 13.0348 14.5553 12.9982 14.4524 12.9294C14.3496 12.8607 14.2694 12.763 14.2221 12.6487C14.1748 12.5344 14.1625 12.4086 14.1868 12.2873C14.211 12.166 14.2707 12.0546 14.3583 11.9673C15.5783 10.7481 16.2499 9.12643 16.2499 7.40143C16.2499 5.67643 15.5783 4.05476 14.3574 2.83559C14.2994 2.77754 14.2533 2.70862 14.2219 2.63276C14.1905 2.55691 14.1743 2.47561 14.1743 2.39351C14.1743 2.31141 14.1905 2.23011 14.2219 2.15426C14.2533 2.0784 14.2994 2.00948 14.3574 1.95143C14.4155 1.89337 14.4844 1.84732 14.5603 1.8159C14.6361 1.78448 14.7174 1.76831 14.7995 1.76831C14.8816 1.76831 14.9629 1.78448 15.0388 1.8159C15.1146 1.84732 15.1835 1.89337 15.2416 1.95143C16.6983 3.40726 17.4999 5.34226 17.4999 7.40143C17.4999 9.46059 16.6983 11.3956 15.2416 12.8514C15.1838 12.9097 15.115 12.9559 15.0392 12.9874C14.9633 13.0189 14.882 13.035 14.7999 13.0348Z" fill="#A50808"/>
<path d="M8.18592 14.068C8.09105 14.0679 7.99745 14.0462 7.9122 14.0045C7.82695 13.9629 7.75228 13.9024 7.69384 13.8277C7.6354 13.753 7.59472 13.6659 7.57487 13.5731C7.55502 13.4804 7.55652 13.3843 7.57926 13.2922L8.78426 8.44302H6.45842C6.34387 8.44296 6.23153 8.41142 6.13369 8.35184C6.03585 8.29226 5.95626 8.20694 5.90362 8.10519C5.85099 8.00345 5.82733 7.88919 5.83523 7.77491C5.84313 7.66063 5.88229 7.55072 5.94842 7.45718L10.5176 0.998849C10.5981 0.885244 10.7143 0.801796 10.8477 0.761749C10.9811 0.721703 11.124 0.727352 11.2538 0.7778C11.3836 0.828249 11.4929 0.920606 11.5642 1.04021C11.6356 1.15982 11.6649 1.29983 11.6476 1.43802L11.1268 5.52635H13.5418C13.6575 5.52596 13.771 5.55774 13.8697 5.61814C13.9684 5.67854 14.0483 5.76518 14.1006 5.8684C14.1529 5.97161 14.1755 6.08733 14.1658 6.20263C14.1562 6.31793 14.1147 6.42828 14.0459 6.52135L8.69009 13.813C8.63203 13.8922 8.55611 13.9565 8.46851 14.0008C8.38091 14.0451 8.28409 14.0682 8.18592 14.068Z" fill="#A50808"/>
</svg>
