<svg width="92" height="92" viewBox="0 0 92 92" fill="none" xmlns="http://www.w3.org/2000/svg">
<g filter="url(#filter0_d_243_3011)">
<circle cx="46" cy="45" r="40" fill="#EBF3FF"/>
</g>
<path d="M40.4048 29.8187C40.4634 29.7864 40.4481 29.7662 40.6539 29.8611C40.8597 29.9565 41.1865 30.2047 41.5075 30.5448C42.1479 31.231 42.7908 32.2703 43.1255 32.9565C43.1359 32.9791 43.1487 32.9989 43.161 33.0186C44.1051 34.6116 44.5118 35.8283 44.5246 36.5944C44.5378 37.3586 44.3296 37.6887 43.666 38.0616L41.95 39.0282C40.8336 39.657 40.3068 40.7841 40.1759 41.8354C40.044 42.8873 40.2404 43.9093 40.7184 44.7174L44.9469 51.8516C45.4279 52.6577 46.2401 53.3342 47.2409 53.7496C48.2416 54.1654 49.5072 54.283 50.6232 53.6546L52.3412 52.6929C53.0048 52.3199 53.4006 52.3093 54.0745 52.7025C54.7503 53.0957 55.6271 54.0449 56.5712 55.6369C56.5845 55.6601 56.5973 55.6798 56.6126 55.7025C57.0546 56.326 57.6567 57.388 57.9471 58.2722C58.0913 58.7126 58.1479 59.1106 58.1297 59.3337C58.1095 59.5543 58.1046 59.5293 58.0451 59.564L56.743 60.2954C53.4695 61.688 50.4706 61.3748 47.7883 60.0102C45.098 58.6451 42.7598 56.1732 41.1324 53.274C41.1265 53.2687 41.1245 53.261 41.1191 53.2566L37.5551 47.2417C37.5521 47.234 37.5472 47.2292 37.5448 47.221C35.7805 44.3993 34.7467 41.1912 34.8747 38.2418C35.0037 35.2968 36.2304 32.61 39.1082 30.5439L40.4048 29.8187ZM41.4489 28.219C40.8853 27.9612 40.1085 27.8855 39.4729 28.244L38.0951 29.0203C38.0636 29.0376 38.0355 29.0554 38.0075 29.0728C34.6896 31.4493 33.1616 34.7571 33.013 38.1676C32.8628 41.5762 34.0265 45.0942 35.9474 48.1693L39.4941 54.149C39.4961 54.149 39.499 54.149 39.499 54.1514L39.504 54.1668C41.2786 57.3147 43.8226 60.0458 46.9243 61.6234C50.031 63.2014 53.7323 63.5672 57.5051 61.9568C57.5385 61.9443 57.5695 61.9294 57.6001 61.9139L58.9789 61.1382C59.6144 60.7797 59.9354 60.0916 59.9875 59.4879C60.0412 58.8817 59.9157 58.2987 59.7252 57.7195C59.352 56.5751 58.7062 55.4693 58.1686 54.7046C57.1506 52.9969 56.1735 51.8077 55.0393 51.1466C54.4918 50.8247 53.8661 50.6523 53.2274 50.6474C52.5887 50.6426 51.9604 50.8055 51.4079 51.1192L49.6899 52.0833C49.1833 52.3686 48.5936 52.3382 47.9738 52.0809C47.3516 51.8227 46.7786 51.3047 46.5625 50.9438L42.334 43.8096C42.1203 43.4491 41.9485 42.7052 42.0283 42.0542C42.11 41.4003 42.3773 40.8901 42.8838 40.6043L44.5969 39.6402C45.7158 39.0118 46.4129 37.8626 46.3917 36.565C46.3686 35.2761 45.8005 33.8508 44.784 32.1325C44.3724 31.3018 43.7148 30.2051 42.8888 29.3234C42.4698 28.8743 42.012 28.4768 41.4489 28.219Z" fill="#1D6ADF"/>
<defs>
<filter id="filter0_d_243_3011" x="0" y="0" width="92" height="92" filterUnits="userSpaceOnUse" color-interpolation-filters="sRGB">
<feFlood flood-opacity="0" result="BackgroundImageFix"/>
<feColorMatrix in="SourceAlpha" type="matrix" values="0 0 0 0 0 0 0 0 0 0 0 0 0 0 0 0 0 0 127 0" result="hardAlpha"/>
<feOffset dy="1"/>
<feGaussianBlur stdDeviation="3"/>
<feComposite in2="hardAlpha" operator="out"/>
<feColorMatrix type="matrix" values="0 0 0 0 0 0 0 0 0 0 0 0 0 0 0 0 0 0 0.1 0"/>
<feBlend mode="normal" in2="BackgroundImageFix" result="effect1_dropShadow_243_3011"/>
<feBlend mode="normal" in="SourceGraphic" in2="effect1_dropShadow_243_3011" result="shape"/>
</filter>
</defs>
</svg>
