<svg width="15" height="16" viewBox="0 0 15 16" fill="none" xmlns="http://www.w3.org/2000/svg">
<path d="M3.28205 3.89744C3.28205 1.74851 5.03056 0 7.17949 0C9.32841 0 11.0769 1.74851 11.0769 3.89744C11.0769 6.04636 9.32841 7.79487 7.17949 7.79487C5.03056 7.79487 3.28205 6.04636 3.28205 3.89744ZM9.64103 9.02564H4.71795C2.11692 9.02564 0 11.1426 0 13.7436C0.000434656 14.3419 0.238302 14.9156 0.661367 15.3386C1.08443 15.7617 1.65811 15.9996 2.25641 16H12.1026C12.7009 15.9996 13.2745 15.7617 13.6976 15.3386C14.1207 14.9156 14.3585 14.3419 14.359 13.7436C14.359 11.1426 12.2421 9.02564 9.64103 9.02564Z" fill="#3F3F3F"/>
</svg>
