<svg width="92" height="92" viewBox="0 0 92 92" fill="none" xmlns="http://www.w3.org/2000/svg">
<g filter="url(#filter0_d_243_3027)">
<circle cx="46" cy="45" r="40" fill="#F0FDF4"/>
</g>
<path d="M62.6666 30H29.3334C27.4949 30 26 31.4949 26 33.3334V56.6667C26 58.5051 27.4949 60 29.3334 60H62.6667C64.5051 60 66 58.5051 66 56.6666V33.3334C66 31.4949 64.5051 30 62.6666 30ZM29.3334 31.6666H62.6667C62.7895 31.6666 62.8977 31.7114 63.013 31.7367C60.1271 34.3779 50.558 43.132 47.2094 46.1491C46.9473 46.3851 46.525 46.6666 46.0001 46.6666C45.4752 46.6666 45.0528 46.3851 44.7899 46.1483C41.4416 43.1316 31.872 34.3771 28.9866 31.7369C29.102 31.7116 29.2105 31.6666 29.3334 31.6666ZM27.6666 56.6666V33.3334C27.6666 33.1701 27.7159 33.022 27.7599 32.8727C29.9687 34.8943 36.6455 41.0024 40.9749 44.9394C36.6596 48.6462 29.981 54.978 27.7547 57.101C27.7154 56.9593 27.6666 56.8207 27.6666 56.6666ZM62.6666 58.3334H29.3334C29.2002 58.3334 29.0819 58.287 28.9576 58.2573C31.2581 56.0641 37.9792 49.6959 42.2187 46.0691C42.7031 46.5088 43.1883 46.9478 43.6741 47.3861C44.361 48.0062 45.165 48.3334 46 48.3334C46.835 48.3334 47.639 48.0062 48.325 47.3869C48.8111 46.9484 49.2966 46.5091 49.7813 46.0691C54.021 49.6955 60.7412 56.0633 63.0424 58.2573C62.9181 58.287 62.7999 58.3334 62.6666 58.3334ZM64.3334 56.6666C64.3334 56.8206 64.2846 56.9593 64.2454 57.101C62.0182 54.977 55.3404 48.6458 51.0252 44.9395C55.3547 41.0025 62.0305 34.8949 64.2401 32.8726C64.2841 33.0218 64.3334 33.17 64.3334 33.3333V56.6666Z" fill="#1EA751"/>
<defs>
<filter id="filter0_d_243_3027" x="0" y="0" width="92" height="92" filterUnits="userSpaceOnUse" color-interpolation-filters="sRGB">
<feFlood flood-opacity="0" result="BackgroundImageFix"/>
<feColorMatrix in="SourceAlpha" type="matrix" values="0 0 0 0 0 0 0 0 0 0 0 0 0 0 0 0 0 0 127 0" result="hardAlpha"/>
<feOffset dy="1"/>
<feGaussianBlur stdDeviation="3"/>
<feComposite in2="hardAlpha" operator="out"/>
<feColorMatrix type="matrix" values="0 0 0 0 0 0 0 0 0 0 0 0 0 0 0 0 0 0 0.1 0"/>
<feBlend mode="normal" in2="BackgroundImageFix" result="effect1_dropShadow_243_3027"/>
<feBlend mode="normal" in="SourceGraphic" in2="effect1_dropShadow_243_3027" result="shape"/>
</filter>
</defs>
</svg>
