<svg width="21" height="32" viewBox="0 0 21 32" fill="none" xmlns="http://www.w3.org/2000/svg">
<path d="M0.319091 31.221H4.92068C5.00518 31.221 5.08621 31.1875 5.14595 31.1277C5.2057 31.068 5.23926 30.987 5.23926 30.9025V29.4081C5.23918 29.3212 5.21901 29.2355 5.18032 29.1577C5.14164 29.0799 5.08549 29.0121 5.01626 28.9596C5.33117 27.7473 6.04032 26.6742 7.03204 25.9092C8.02377 25.1441 9.24177 24.7306 10.4943 24.7338C11.7468 24.7369 12.9627 25.1565 13.9506 25.9265C14.9385 26.6965 15.6423 27.7731 15.9511 28.987C15.8915 29.0397 15.8437 29.1046 15.811 29.1772C15.7783 29.2498 15.7613 29.3285 15.7612 29.4081V30.9025C15.7612 30.987 15.7948 31.068 15.8546 31.1277C15.9143 31.1875 15.9953 31.221 16.0798 31.221H20.6814C20.7659 31.221 20.8469 31.1875 20.9067 31.1277C20.9664 31.068 21 30.987 21 30.9025V29.4081C20.9998 29.2584 20.9403 29.1149 20.8344 29.0091C20.7286 28.9032 20.5851 28.8437 20.4354 28.8435H20.2525C19.7207 28.2641 19.2183 27.6583 18.7472 27.0285C17.4912 25.3565 16.3858 23.5765 15.4441 21.7093V20.307C15.4439 20.1573 15.3843 20.0138 15.2785 19.9079C15.1726 19.8021 15.0291 19.7425 14.8794 19.7424H14.5882C13.9759 18.2878 13.4627 16.7934 13.0522 15.2695C13.1104 15.2454 13.1601 15.2046 13.1951 15.1522C13.2301 15.0998 13.2488 15.0383 13.2488 14.9753V13.4812C13.2487 13.3315 13.1892 13.1879 13.0833 13.0821C12.9775 12.9762 12.834 12.9167 12.6843 12.9165H12.4985C11.9372 10.0439 11.7325 7.11289 11.8893 4.19011H12.0153C12.0998 4.19011 12.1808 4.15654 12.2406 4.0968C12.3003 4.03705 12.3339 3.95602 12.3339 3.87153V2.37719C12.3337 2.2275 12.2742 2.08399 12.1683 1.97815C12.0625 1.8723 11.919 1.81277 11.7693 1.8126H11.0134V0.318643C11.0134 0.234149 10.9799 0.153117 10.9201 0.0933714C10.8604 0.0336258 10.7793 6.10352e-05 10.6948 6.10352e-05C10.6104 6.10352e-05 10.5293 0.0336258 10.4696 0.0933714C10.4098 0.153117 10.3763 0.234149 10.3763 0.318643V1.8126H9.59625C9.44656 1.81277 9.30305 1.8723 9.19721 1.97815C9.09136 2.08399 9.03183 2.2275 9.03166 2.37719V3.87153C9.03166 3.95602 9.06522 4.03705 9.12497 4.0968C9.18471 4.15654 9.26575 4.19011 9.35024 4.19011H9.52629C9.68147 7.11527 9.45895 10.0482 8.86421 12.9165H8.6161C8.4664 12.9167 8.32288 12.9762 8.21704 13.0821C8.11119 13.1879 8.05166 13.3315 8.05151 13.4812V14.9755C8.05165 15.0442 8.07408 15.1111 8.11544 15.166C8.1568 15.2208 8.21486 15.2608 8.28089 15.2799C7.84064 16.8026 7.29724 18.2935 6.65447 19.7424H6.23394C6.08425 19.7425 5.94074 19.8021 5.8349 19.9079C5.72905 20.0138 5.66952 20.1573 5.66935 20.307V21.767C3.50886 25.825 1.34155 28.3278 0.877119 28.8435H0.56459C0.414903 28.8437 0.271395 28.9032 0.16555 29.0091C0.0597058 29.1149 0.000168642 29.2584 0 29.4081V30.9025C-5.36057e-08 30.9443 0.00825695 30.9858 0.024299 31.0245C0.0403411 31.0632 0.0638534 31.0983 0.0934905 31.1279C0.123128 31.1575 0.158308 31.181 0.197019 31.1969C0.23573 31.2129 0.277211 31.2211 0.319091 31.221ZM20.3628 29.4807V30.5839H16.3984V29.4807H20.3628ZM9.66882 2.44976H11.6964V3.55295H9.66882V2.44976ZM10.1643 4.19011H11.2509C11.097 7.11241 11.298 10.0426 11.8494 12.9165H9.51476C10.0984 10.0467 10.3167 7.11466 10.1643 4.19011ZM8.68867 13.5537H12.6117V14.6569H8.68867V13.5537ZM8.93972 15.2941H12.399C12.8006 16.808 13.3012 18.294 13.8975 19.7424H13.0955L11.9976 16.6997C11.9754 16.6375 11.9343 16.5837 11.8801 16.546C11.8258 16.5083 11.7612 16.4885 11.6951 16.4894L9.69545 16.5069C9.62967 16.5074 9.56568 16.5283 9.51226 16.5667C9.45885 16.6052 9.41863 16.6591 9.39713 16.7213L8.35219 19.7426H7.35089C7.97823 18.2965 8.509 16.8104 8.93972 15.2941ZM12.4181 19.7424H9.02662L9.92604 17.1418L11.4751 17.1283L12.4181 19.7424ZM6.30696 20.3795H14.8067V21.4828H6.30696V20.3795ZM2.84079 27.4357C4.09357 25.7505 5.21793 23.9736 6.20437 22.1199H14.9381C16.6903 25.5549 18.5325 27.8571 19.3936 28.8435H16.5719C16.2318 27.4853 15.4476 26.2797 14.3438 25.4183C13.2401 24.5568 11.8801 24.0889 10.4799 24.0889C9.07979 24.0889 7.71981 24.5568 6.61604 25.4183C5.51228 26.2797 4.72805 27.4853 4.38795 28.8435H1.72359C1.99923 28.5182 2.38229 28.0476 2.84066 27.4357H2.84079ZM0.6378 29.481H4.60223V30.5839H0.6378V29.481Z" fill="#FF9502"/>
<path d="M6.50071 23.862H7.7795C7.86399 23.862 7.94502 23.8284 8.00477 23.7687C8.06451 23.7089 8.09808 23.6279 8.09808 23.5434C8.09808 23.4589 8.06451 23.3779 8.00477 23.3181C7.94502 23.2584 7.86399 23.2248 7.7795 23.2248H6.50071C6.41622 23.2248 6.33519 23.2584 6.27544 23.3181C6.21569 23.3779 6.18213 23.4589 6.18213 23.5434C6.18213 23.6279 6.21569 23.7089 6.27544 23.7687C6.33519 23.8284 6.41622 23.862 6.50071 23.862ZM13.1821 23.862H14.4611C14.5456 23.862 14.6266 23.8284 14.6864 23.7687C14.7461 23.7089 14.7797 23.6279 14.7797 23.5434C14.7797 23.4589 14.7461 23.3779 14.6864 23.3181C14.6266 23.2584 14.5456 23.2248 14.4611 23.2248H13.1821C13.0976 23.2248 13.0166 23.2584 12.9569 23.3181C12.8971 23.3779 12.8635 23.4589 12.8635 23.5434C12.8635 23.6279 12.8971 23.7089 12.9569 23.7687C13.0166 23.8284 13.0976 23.862 13.1821 23.862ZM10.6606 9.91901C10.5761 9.91901 10.4951 9.95257 10.4353 10.0123C10.3756 10.0721 10.342 10.1531 10.342 10.2376V11.9907C10.342 12.0752 10.3756 12.1563 10.4353 12.216C10.4951 12.2758 10.5761 12.3093 10.6606 12.3093C10.7451 12.3093 10.8261 12.2758 10.8859 12.216C10.9456 12.1563 10.9792 12.0752 10.9792 11.9907V10.2376C10.9792 10.1531 10.9456 10.0721 10.8859 10.0123C10.8261 9.95257 10.7451 9.91901 10.6606 9.91901Z" fill="#FF9502"/>
</svg>
