<svg width="92" height="92" viewBox="0 0 92 92" fill="none" xmlns="http://www.w3.org/2000/svg">
<g filter="url(#filter0_d_243_2517)">
<circle cx="46" cy="45" r="40" fill="white"/>
</g>
<path d="M29.4657 43.286C29.7422 43.3413 30.074 43.1201 30.074 42.7883C31.18 34.8805 38.0371 28.9634 46.0003 28.9634C54.8482 28.9634 62.0371 36.1524 62.0371 45.0003C62.0371 45.3321 62.2583 45.5533 62.5901 45.5533C62.9219 45.5533 63.1431 45.3321 63.1431 45.0003C63.1431 35.5441 55.4565 27.8574 46.0003 27.8574C37.4841 27.8574 30.1846 34.2169 29.0233 42.6224C28.968 42.9542 29.1892 43.2307 29.4657 43.286ZM61.8159 49.9772C61.5394 49.8666 61.2077 50.0325 61.0971 50.309C58.8851 56.7238 52.8021 61.0371 46.0003 61.0371C37.1524 61.0371 29.9634 53.8482 29.9634 45.0003C29.9634 44.6685 29.7422 44.4473 29.4104 44.4473C29.0786 44.4473 28.8574 44.6685 28.8574 45.0003C28.8574 54.4565 36.5441 62.1431 46.0003 62.1431C53.2445 62.1431 59.7699 57.5533 62.1477 50.6961C62.2583 50.4196 62.1477 50.0878 61.8159 49.9772ZM62.5348 46.7146C62.203 46.6593 61.9265 46.8805 61.9265 47.2123C61.8712 47.5441 61.8159 47.9312 61.7606 48.263C61.7053 48.5394 61.8712 48.8712 62.203 48.9265C62.4795 48.9818 62.8113 48.7606 62.8666 48.4841C62.9219 48.0971 63.0325 47.7653 63.0325 47.3782C63.0325 47.0464 62.8113 46.7699 62.5348 46.7146Z" fill="#141C28"/>
<path d="M40.9129 54.0134L46.0004 48.9258L49.2078 52.1332C49.429 52.3544 49.7608 52.3544 49.982 52.1332C50.2032 51.912 50.2032 51.5802 49.982 51.359L46.3875 47.7645C46.1663 47.5433 45.8345 47.5433 45.6134 47.7645L40.1387 53.2392C39.5304 53.7922 38.7009 54.0687 37.8161 53.2392C37.1525 52.6309 37.1525 51.5249 37.8161 50.9166L43.2908 45.4419C43.512 45.2207 43.512 44.8889 43.2908 44.6677L37.8161 39.1931C36.9866 38.0871 37.4843 37.147 37.8161 36.8705C38.4797 36.2069 39.5304 36.2069 40.1387 36.8705L45.6134 42.3452C45.8345 42.5664 46.1663 42.5664 46.3875 42.3452C46.6087 42.124 46.6087 41.7922 46.3875 41.571L40.9129 36.0963C39.8622 35.0456 38.0373 34.9903 36.9866 36.0963C35.5488 37.6447 36.4889 39.4696 36.9866 40.0226L42.0742 45.1101L36.9866 50.1977C35.9359 51.2484 35.8806 53.0733 36.9866 54.124C38.4797 55.4512 40.3046 54.677 40.9129 54.0134ZM51.8622 53.2392C51.641 53.018 51.3092 53.018 51.088 53.2392C50.8668 53.4604 50.8668 53.7922 51.088 54.0134C52.1387 55.0641 53.9083 55.0641 55.0143 54.0134C55.512 53.5157 56.4521 51.8014 55.0143 50.0871L49.9267 44.9995L55.0143 39.912C56.065 38.8613 56.065 37.0917 55.0143 35.9857C54.5166 35.488 52.747 34.6032 51.088 35.9857L47.3829 39.6908C47.1617 39.912 47.1617 40.2438 47.3829 40.465C47.6041 40.6862 47.9359 40.6862 48.1571 40.465L51.8622 36.7599C52.8576 35.8751 53.9083 36.4281 54.1848 36.7599C54.8484 37.4235 54.8484 38.4742 54.1848 39.0825L48.7654 44.6124C48.5442 44.8336 48.5442 45.1654 48.7654 45.3866L54.2401 50.8613C55.1802 51.912 54.5719 52.9074 54.2401 53.1839C53.5765 53.8475 52.5258 53.8475 51.8622 53.2392Z" fill="#141C28"/>
<path d="M34.7744 53.0738C34.6085 52.8526 34.2767 52.742 34.0002 52.9632C33.779 53.1291 33.6684 53.4609 33.8896 53.7374C36.6546 57.6084 41.1892 59.931 46.0002 59.931C46.332 59.931 46.5532 59.7098 46.5532 59.378C46.5532 59.0462 46.332 58.825 46.0002 58.825C41.5763 58.825 37.3735 56.6683 34.7744 53.0738ZM58.2767 37.5347C58.4979 37.3688 58.6085 37.037 58.4426 36.7605C58.0555 36.2075 57.6684 35.6545 57.1707 35.1568C56.9495 34.9356 56.6177 34.8803 56.3965 35.1015C56.1753 35.3227 56.12 35.6545 56.3412 35.8757C56.7836 36.3734 57.1707 36.8711 57.5025 37.3688C57.6131 37.5347 58.0002 37.7006 58.2767 37.5347ZM41.3551 31.9494C42.8481 31.4517 44.3965 31.1752 46.0002 31.1752C48.9311 31.1752 51.6961 32.06 54.0739 33.7743C54.1845 33.8296 54.5716 33.9955 54.8481 33.6637C55.014 33.4425 54.9587 33.0554 54.7375 32.8895C52.1385 31.0646 49.1523 30.0692 46.0002 30.0692C44.2859 30.0692 42.6269 30.3457 41.0233 30.8987C40.7468 31.0093 40.5809 31.3411 40.6915 31.6176C40.8021 31.8941 41.0786 32.06 41.3551 31.9494Z" fill="#141C28"/>
<defs>
<filter id="filter0_d_243_2517" x="0" y="0" width="92" height="92" filterUnits="userSpaceOnUse" color-interpolation-filters="sRGB">
<feFlood flood-opacity="0" result="BackgroundImageFix"/>
<feColorMatrix in="SourceAlpha" type="matrix" values="0 0 0 0 0 0 0 0 0 0 0 0 0 0 0 0 0 0 127 0" result="hardAlpha"/>
<feOffset dy="1"/>
<feGaussianBlur stdDeviation="3"/>
<feComposite in2="hardAlpha" operator="out"/>
<feColorMatrix type="matrix" values="0 0 0 0 0 0 0 0 0 0 0 0 0 0 0 0 0 0 0.1 0"/>
<feBlend mode="normal" in2="BackgroundImageFix" result="effect1_dropShadow_243_2517"/>
<feBlend mode="normal" in="SourceGraphic" in2="effect1_dropShadow_243_2517" result="shape"/>
</filter>
</defs>
</svg>
