<svg width="35" height="35" viewBox="0 0 35 35" fill="none" xmlns="http://www.w3.org/2000/svg">
<path d="M0.608295 15.4286C0.884793 15.4839 1.21659 15.2627 1.21659 14.9309C2.32258 7.02304 9.17972 1.10599 17.1429 1.10599C25.9908 1.10599 33.1797 8.29493 33.1797 17.1429C33.1797 17.4747 33.4009 17.6959 33.7327 17.6959C34.0645 17.6959 34.2857 17.4747 34.2857 17.1429C34.2857 7.68664 26.5991 0 17.1429 0C8.62673 0 1.32719 6.35945 0.165899 14.765C0.110599 15.0968 0.331797 15.3733 0.608295 15.4286ZM32.9585 22.1198C32.682 22.0092 32.3502 22.1751 32.2396 22.4516C30.0276 28.8664 23.9447 33.1797 17.1429 33.1797C8.29493 33.1797 1.10599 25.9908 1.10599 17.1429C1.10599 16.8111 0.884793 16.5899 0.552995 16.5899C0.221198 16.5899 0 16.8111 0 17.1429C0 26.5991 7.68664 34.2857 17.1429 34.2857C24.3871 34.2857 30.9124 29.6959 33.2903 22.8387C33.4009 22.5622 33.2903 22.2304 32.9585 22.1198ZM33.6774 18.8571C33.3456 18.8018 33.0691 19.023 33.0691 19.3548C33.0138 19.6866 32.9585 20.0737 32.9032 20.4055C32.8479 20.682 33.0138 21.0138 33.3456 21.0691C33.6221 21.1244 33.9539 20.9032 34.0092 20.6267C34.0645 20.2396 34.1751 19.9078 34.1751 19.5207C34.1751 19.1889 33.9539 18.9124 33.6774 18.8571Z" fill="#141C28"/>
<path d="M12.0555 26.1559L17.143 21.0684L20.3504 24.2758C20.5716 24.497 20.9034 24.497 21.1246 24.2758C21.3458 24.0546 21.3458 23.7228 21.1246 23.5016L17.5301 19.9071C17.3089 19.6859 16.9771 19.6859 16.7559 19.9071L11.2813 25.3818C10.673 25.9347 9.84349 26.2112 8.95869 25.3818C8.2951 24.7735 8.2951 23.6675 8.95869 23.0592L14.4333 17.5845C14.6545 17.3633 14.6545 17.0315 14.4333 16.8103L8.95869 11.3357C8.1292 10.2297 8.6269 9.28958 8.95869 9.01309C9.62229 8.34949 10.673 8.34949 11.2813 9.01309L16.7559 14.4877C16.9771 14.7089 17.3089 14.7089 17.5301 14.4877C17.7513 14.2665 17.7513 13.9347 17.5301 13.7135L12.0555 8.23889C11.0048 7.1882 9.17989 7.1329 8.1292 8.23889C6.69141 9.78728 7.63151 11.6122 8.1292 12.1652L13.2168 17.2527L8.1292 22.3403C7.07851 23.391 7.02321 25.2159 8.1292 26.2665C9.62229 27.5937 11.4472 26.8195 12.0555 26.1559ZM23.0048 25.3818C22.7836 25.1606 22.4518 25.1606 22.2306 25.3818C22.0094 25.6029 22.0094 25.9347 22.2306 26.1559C23.2813 27.2066 25.0509 27.2066 26.1569 26.1559C26.6545 25.6582 27.5946 23.944 26.1569 22.2297L21.0693 17.1421L26.1569 12.0546C27.2075 11.0039 27.2075 9.23428 26.1569 8.12829C25.6592 7.6306 23.8896 6.74581 22.2306 8.12829L18.5255 11.8334C18.3043 12.0546 18.3043 12.3864 18.5255 12.6076C18.7467 12.8288 19.0785 12.8288 19.2997 12.6076L23.0048 8.90249C24.0002 8.0177 25.0509 8.57069 25.3274 8.90249C25.991 9.56608 25.991 10.6168 25.3274 11.2251L19.908 16.755C19.6868 16.9762 19.6868 17.308 19.908 17.5292L25.3827 23.0039C26.3228 24.0546 25.7145 25.05 25.3827 25.3264C24.7191 25.99 23.6684 25.99 23.0048 25.3818Z" fill="#141C28"/>
<path d="M5.9165 25.2164C5.7506 24.9952 5.4188 24.8846 5.1423 25.1058C4.92111 25.2717 4.81051 25.6035 5.0317 25.88C7.79668 29.751 12.3312 32.0735 17.1423 32.0735C17.4741 32.0735 17.6953 31.8523 17.6953 31.5205C17.6953 31.1887 17.4741 30.9676 17.1423 30.9676C12.7183 30.9676 8.51558 28.8109 5.9165 25.2164ZM29.4188 9.67723C29.64 9.51133 29.7506 9.17953 29.5847 8.90304C29.1976 8.35004 28.8105 7.79705 28.3128 7.29935C28.0916 7.07815 27.7598 7.02285 27.5386 7.24405C27.3174 7.46525 27.2621 7.79705 27.4833 8.01824C27.9257 8.51594 28.3128 9.01364 28.6446 9.51133C28.7552 9.67723 29.1423 9.84313 29.4188 9.67723ZM12.4971 4.09198C13.9902 3.59428 15.5386 3.31778 17.1423 3.31778C20.0732 3.31778 22.8382 4.20258 25.216 5.91686C25.3266 5.97216 25.7137 6.13806 25.9902 5.80626C26.1561 5.58506 26.1008 5.19797 25.8796 5.03207C23.2806 3.20718 20.2944 2.21179 17.1423 2.21179C15.428 2.21179 13.769 2.48829 12.1653 3.04129C11.8888 3.15188 11.7229 3.48368 11.8335 3.76018C11.9441 4.03668 12.2206 4.20258 12.4971 4.09198Z" fill="#141C28"/>
</svg>
