<svg width="92" height="92" viewBox="0 0 92 92" fill="none" xmlns="http://www.w3.org/2000/svg">
<g filter="url(#filter0_d_243_3018)">
<circle cx="46" cy="45" r="40" fill="#FEE5E5"/>
</g>
<g clip-path="url(#clip0_243_3018)">
<path d="M59.9286 30C59.7622 29.9999 59.5981 30.0386 59.4492 30.113L51.33 34.1737L42.1491 30.0927C42.1341 30.0863 42.117 30.0851 42.1009 30.0787C42.0596 30.0633 42.0174 30.0504 41.9745 30.0402C41.9318 30.0287 41.8886 30.0197 41.8448 30.0134C41.7579 30.0062 41.6704 30.0062 41.5834 30.0134C41.5397 30.0197 41.4964 30.0287 41.4538 30.0402C41.4109 30.0504 41.3687 30.0633 41.3274 30.0787C41.3113 30.0851 41.2942 30.0862 41.2792 30.0927L31.6364 34.3783C31.447 34.4625 31.286 34.5998 31.173 34.7736C31.0601 34.9474 31 35.1502 31 35.3575V58.9286C31.0001 59.107 31.0447 59.2826 31.1298 59.4394C31.215 59.5962 31.3379 59.7292 31.4875 59.8265C31.6371 59.9239 31.8086 59.9823 31.9866 59.9965C32.1645 60.0108 32.3432 59.9803 32.5064 59.9079L41.7141 55.8151L50.9218 59.9079C50.9379 59.9143 50.955 59.9079 50.9711 59.9176C51.0992 59.9749 51.2384 60.003 51.3786 59.9998C51.5189 59.9967 51.6567 59.9623 51.7821 59.8994C51.7992 59.8919 51.8185 59.8994 51.8357 59.8876L60.4069 55.6019C60.585 55.5129 60.7348 55.376 60.8395 55.2066C60.9441 55.0373 60.9995 54.8421 60.9994 54.643V31.0719C60.9998 30.4802 60.5203 30.0003 59.9286 30ZM40.6427 53.9466L33.1428 57.2797V36.054L40.6427 32.7208V53.9466ZM50.2854 57.2797L42.7855 53.9466V32.7208L50.2854 36.0539V57.2797ZM58.8567 53.9808L52.4282 57.1951V36.0197L58.8567 32.8054V53.9808Z" fill="#E30000"/>
</g>
<defs>
<filter id="filter0_d_243_3018" x="0" y="0" width="92" height="92" filterUnits="userSpaceOnUse" color-interpolation-filters="sRGB">
<feFlood flood-opacity="0" result="BackgroundImageFix"/>
<feColorMatrix in="SourceAlpha" type="matrix" values="0 0 0 0 0 0 0 0 0 0 0 0 0 0 0 0 0 0 127 0" result="hardAlpha"/>
<feOffset dy="1"/>
<feGaussianBlur stdDeviation="3"/>
<feComposite in2="hardAlpha" operator="out"/>
<feColorMatrix type="matrix" values="0 0 0 0 0 0 0 0 0 0 0 0 0 0 0 0 0 0 0.1 0"/>
<feBlend mode="normal" in2="BackgroundImageFix" result="effect1_dropShadow_243_3018"/>
<feBlend mode="normal" in="SourceGraphic" in2="effect1_dropShadow_243_3018" result="shape"/>
</filter>
<clipPath id="clip0_243_3018">
<rect width="30" height="30" fill="white" transform="translate(31 30)"/>
</clipPath>
</defs>
</svg>
