<svg width="92" height="92" viewBox="0 0 92 92" fill="none" xmlns="http://www.w3.org/2000/svg">
<g filter="url(#filter0_d_243_3004)">
<circle cx="46" cy="45" r="40" fill="#FFF6ED"/>
</g>
<path d="M56.2707 31.3358C53.4748 28.5398 49.7573 27 45.8033 27C41.8492 27 38.1317 28.5398 35.3358 31.3358C32.5398 34.1318 31 37.8492 31 41.8032C31 49.8021 38.5632 56.4552 42.6264 60.0295C43.1911 60.5262 43.6787 60.9551 44.0671 61.318C44.5539 61.7726 45.1786 62 45.8032 62C46.4279 62 47.0526 61.7726 47.5393 61.318C47.9278 60.9551 48.4154 60.5262 48.9801 60.0295C53.0433 56.4551 60.6065 49.8021 60.6065 41.8032C60.6064 37.8492 59.0667 34.1318 56.2707 31.3358ZM47.6259 58.4901C47.0489 58.9977 46.5506 59.4361 46.1397 59.8198C45.951 59.996 45.6554 59.996 45.4666 59.8198C45.0558 59.436 44.5575 58.9976 43.9805 58.4901C40.1605 55.1299 33.0501 48.875 33.0501 41.8033C33.0501 34.7713 38.7711 29.0503 45.8031 29.0503C52.8352 29.0503 58.5561 34.7713 58.5561 41.8033C58.5562 48.875 51.4458 55.1299 47.6259 58.4901Z" fill="#F87316"/>
<path d="M45.8029 34.7216C42.2058 34.7216 39.2793 37.648 39.2793 41.2451C39.2793 44.8423 42.2058 47.7687 45.8029 47.7687C49.4001 47.7687 52.3265 44.8423 52.3265 41.2451C52.3265 37.648 49.4001 34.7216 45.8029 34.7216ZM45.8029 45.7184C43.3363 45.7184 41.3295 43.7116 41.3295 41.2451C41.3295 38.7785 43.3363 36.7717 45.8029 36.7717C48.2695 36.7717 50.2762 38.7785 50.2762 41.2451C50.2762 43.7116 48.2695 45.7184 45.8029 45.7184Z" fill="#F87316"/>
<defs>
<filter id="filter0_d_243_3004" x="0" y="0" width="92" height="92" filterUnits="userSpaceOnUse" color-interpolation-filters="sRGB">
<feFlood flood-opacity="0" result="BackgroundImageFix"/>
<feColorMatrix in="SourceAlpha" type="matrix" values="0 0 0 0 0 0 0 0 0 0 0 0 0 0 0 0 0 0 127 0" result="hardAlpha"/>
<feOffset dy="1"/>
<feGaussianBlur stdDeviation="3"/>
<feComposite in2="hardAlpha" operator="out"/>
<feColorMatrix type="matrix" values="0 0 0 0 0 0 0 0 0 0 0 0 0 0 0 0 0 0 0.1 0"/>
<feBlend mode="normal" in2="BackgroundImageFix" result="effect1_dropShadow_243_3004"/>
<feBlend mode="normal" in="SourceGraphic" in2="effect1_dropShadow_243_3004" result="shape"/>
</filter>
</defs>
</svg>
