<svg width="62" height="28" viewBox="0 0 62 28" fill="none" xmlns="http://www.w3.org/2000/svg">
<path d="M0 27.3438V0H5.50781V27.3438H0ZM7.61719 14.8828V9.49219H8.90625C10.026 9.49219 10.6771 8.9974 10.8594 8.00781C10.8854 7.85156 10.8984 7.68229 10.8984 7.5C10.7422 6.22396 10.0781 5.53385 8.90625 5.42969H7.61719V0H9.0625C13.9323 0.182292 16.4062 2.63021 16.4844 7.34375C16.4844 10.8333 15.4818 13.0859 13.4766 14.1016C12.3568 14.6484 10.8854 14.9089 9.0625 14.8828C8.98438 14.8828 8.5026 14.8828 7.61719 14.8828ZM44.4938 5.39062V0H61.4078V5.39062H55.7047V27.3438H50.1969V5.39062H44.4938Z" fill="black"/>
<path d="M22.9109 27.3438V0H28.4188V27.3438H22.9109ZM30.5281 27.3438V21.8359C31.101 21.8359 31.6349 21.6016 32.1297 21.1328C32.4943 20.7161 32.6896 20.2214 32.7156 19.6484V7.69531C32.7156 7.17448 32.4943 6.66667 32.0516 6.17188C31.6349 5.75521 31.1271 5.53385 30.5281 5.50781V0C33.4188 0 35.6063 1.28906 37.0906 3.86719C37.8458 5.19531 38.2234 6.47135 38.2234 7.69531V19.6484C38.2234 22.6172 36.9083 24.8307 34.2781 26.2891C32.976 26.9922 31.726 27.3438 30.5281 27.3438Z" fill="#FF9502"/>
</svg>
