<svg width="10" height="16" viewBox="0 0 10 16" fill="none" xmlns="http://www.w3.org/2000/svg">
<path d="M8.90649 4.26083H7.93975V1.27813C7.93975 0.573449 7.37797 0 6.68735 0H3.31277C2.62228 0 2.06031 0.573449 2.06031 1.27813V4.26076H1.09363C0.489685 4.26076 0 4.76051 0 5.37686V13.8037C0 14.4204 0.489811 14.92 1.09363 14.92H1.24028V15.7302C1.24027 15.7656 1.2471 15.8007 1.26037 15.8334C1.27365 15.8662 1.29311 15.8959 1.31765 15.9209C1.34219 15.946 1.37132 15.9659 1.40339 15.9794C1.43545 15.993 1.46982 16 1.50453 16H2.75516C2.78988 16 2.82427 15.993 2.85635 15.9795C2.88843 15.9659 2.91758 15.946 2.94213 15.921C2.96668 15.8959 2.98615 15.8662 2.99944 15.8335C3.01272 15.8007 3.01955 15.7656 3.01954 15.7302V14.92H6.98027V15.7302C6.98028 15.8017 7.00814 15.8704 7.05772 15.921C7.1073 15.9716 7.17453 16 7.24465 16H8.49515C8.52988 16 8.56426 15.993 8.59634 15.9795C8.62843 15.9659 8.65758 15.9461 8.68213 15.921C8.70669 15.896 8.72616 15.8662 8.73944 15.8335C8.75272 15.8007 8.75955 15.7656 8.75953 15.7302V14.92H8.90637C9.51031 14.92 10 14.4202 10 13.8037V5.37693C10.0001 4.76044 9.51044 4.26083 8.90649 4.26083ZM7.10463 4.26076H2.89512V1.27813C2.89525 1.16518 2.93928 1.05689 3.01754 0.977024C3.0958 0.897155 3.20191 0.852224 3.31258 0.852088H6.68716C6.79784 0.852224 6.90395 0.897155 6.98221 0.977024C7.06047 1.05689 7.1045 1.16518 7.10463 1.27813V4.26076Z" fill="#3F3F3F"/>
</svg>
