<svg width="35" height="35" viewBox="0 0 35 35" fill="none" xmlns="http://www.w3.org/2000/svg">
<path d="M28.5714 24.7062L27.1161 23.8343C26.6723 23.569 26.1649 23.4288 25.6478 23.4286H23.4576C23.0092 23.4278 22.5627 23.4854 22.1292 23.5999L15.5298 25.3714C15.1743 25.4696 14.8476 25.6517 14.5772 25.9025C14.3067 26.1533 14.1006 26.4654 13.976 26.8126L8.17128 23.6722C7.70051 23.4044 7.14961 23.3134 6.61771 23.4155C6.41705 23.451 6.22248 23.5149 6.03985 23.6053C5.62719 23.803 5.28473 24.122 5.05828 24.5196C4.86026 24.8658 4.75611 25.2577 4.75614 25.6566C4.75312 26.0564 4.85603 26.4499 5.05441 26.7971C5.25279 27.1443 5.53956 27.4327 5.88557 27.6332L16.2891 33.8578C16.7409 34.1376 17.2618 34.2858 17.7932 34.2857H25.8446C26.2042 34.2859 26.5605 34.2181 26.8948 34.0857L28.5714 33.4236V34.2857H34.2857V22.8572H28.5714V24.7062ZM26.4748 33.0229C26.2747 33.1018 26.0615 33.1426 25.8463 33.1429H17.7932C17.4712 33.1426 17.1558 33.0519 16.8828 32.8811L6.46514 26.6493C6.29126 26.5488 6.14709 26.4041 6.04731 26.2298C5.94752 26.0556 5.89568 25.858 5.89707 25.6572C5.8979 25.4566 5.95066 25.2598 6.05021 25.0857C6.16406 24.8884 6.33523 24.7303 6.541 24.6325C6.63144 24.5885 6.72761 24.5573 6.82671 24.5399C6.89896 24.5264 6.97229 24.5196 7.04578 24.5195C7.24221 24.519 7.43528 24.5703 7.60578 24.668L13.9001 28.0692C13.9073 28.1041 13.9073 28.1384 13.9166 28.1733C14.1873 29.1708 15.0921 29.8636 16.1258 29.8647C16.4439 29.8356 16.759 29.7794 17.0675 29.6967L23.0044 28.108L22.7098 27.0039L16.7921 28.5856C16.5315 28.6456 16.1953 28.7143 16.1258 28.7201C15.8748 28.7206 15.6306 28.6384 15.431 28.4863C15.2313 28.3342 15.0873 28.1205 15.0212 27.8784C15.0028 27.8091 14.9919 27.7383 14.988 27.6669C14.988 27.6669 14.9836 27.5284 14.988 27.4799C15.0093 27.2465 15.1011 27.025 15.2513 26.845C15.4014 26.665 15.6028 26.5349 15.8287 26.4721L22.4252 24.7073C22.7619 24.6172 23.109 24.5715 23.4576 24.5714H25.6478C25.9581 24.5714 26.2626 24.6557 26.5284 24.815L28.5714 26.0382V32.1942L26.4748 33.0229ZM29.7143 24H33.1428V33.1429H29.7143V24ZM23.5681 4.57145L20.5028 1.50645C20.0265 1.02729 19.4598 0.647421 18.8356 0.388836C18.2114 0.130251 17.5421 -0.00190577 16.8664 2.07635e-05H9.68214C9.2387 0.000749236 8.80143 0.103985 8.40449 0.301663L7.12378 0.942235C6.86716 1.07138 6.58191 1.13313 6.29485 1.12166L5.71428 1.10131V2.07635e-05H0V12.5714H5.71428V10.8572H6.68585L7.03157 11.0857C7.99902 11.7281 9.1252 12.0905 10.2857 12.133V19.4286H34.2857V4.57145H23.5681ZM4.57143 11.4286H1.14286V1.14288H4.57143V11.4286ZM7.66407 10.1348L7.02842 9.7143H5.71428V2.24473L6.25307 2.26402C6.73141 2.28104 7.2064 2.17811 7.63478 1.96459L8.91435 1.32395C9.15277 1.20484 9.41563 1.14285 9.68214 1.14288H16.8663C17.3918 1.14136 17.9123 1.2441 18.3978 1.44516C18.8833 1.64621 19.3241 1.94158 19.6947 2.31416L21.952 4.57145H17.2366L15.8496 3.18473L15.0418 3.99252L19.0784 8.0293C19.5268 8.47573 19.5282 9.20116 19.0818 9.64987C18.6351 10.0982 17.9096 10.0997 17.4612 9.65323L14.0898 6.2818L13.6898 6.62473C12.5851 7.5628 10.9704 7.5868 9.83814 6.68166L9.50699 6.41323L8.78685 7.30109L9.12164 7.57252C9.47183 7.85242 9.86491 8.07396 10.2857 8.22859V10.9897C9.3504 10.9482 8.44407 10.6527 7.66407 10.1349V10.1348ZM15.7926 9.59987L16.6548 10.4624C17.5499 11.344 18.9868 11.3454 19.8834 10.4652C19.0446 11.7639 19.3756 13.4925 20.6348 14.3895C21.894 15.2866 23.6358 15.0346 24.5893 13.8178C25.5427 12.6007 25.3706 10.8491 24.1981 9.84123C23.0259 8.83344 21.2681 8.9258 20.2081 10.0508C20.4005 9.74863 20.5179 9.40485 20.5505 9.04811C20.583 8.69138 20.5298 8.33203 20.3953 8.00002H28.0475C28.2932 9.4378 29.4193 10.5639 30.8571 10.8097V13.1903C29.4193 13.4361 28.2932 14.5622 28.0474 16H16.524C16.2782 14.5622 15.1521 13.4361 13.7143 13.1903V10.8097C14.531 10.6721 15.2697 10.2421 15.7927 9.59987H15.7926ZM20.5714 12C20.5714 11.0533 21.339 10.2857 22.2857 10.2857C23.2324 10.2857 24 11.0533 24 12C24 12.9467 23.2324 13.7143 22.2857 13.7143C21.339 13.7143 20.5714 12.9467 20.5714 12ZM33.1428 18.2857H11.4286V8.46787C12.3345 8.53588 13.2377 8.3051 14 7.81087L14.9748 8.78573C14.7634 9.07302 14.4875 9.30669 14.1693 9.46796C13.8511 9.62924 13.4996 9.71361 13.1428 9.7143H12.5714V14.2857H13.1428C14.4051 14.2857 15.4286 15.3092 15.4286 16.5714V17.1429H29.1428V16.5714C29.1428 15.3092 30.1663 14.2857 31.4286 14.2857H32V9.7143H31.4286C30.1663 9.7143 29.1428 8.69087 29.1428 7.42859V6.85716H19.5223L18.3794 5.7143H33.1428V18.2857Z" fill="#141C28"/>
</svg>
