<svg width="31" height="35" viewBox="0 0 31 35" fill="none" xmlns="http://www.w3.org/2000/svg">
<path d="M26.4452 24.2041L22.4081 23.0726C19.0339 20.9905 20.1051 21.6533 19.8908 21.5194V19.2833C21.2834 17.8104 22.542 15.5943 22.6826 11.1087C23.071 10.7806 23.3254 10.2919 23.3254 9.7295C23.3254 9.16043 23.3254 8.61813 23.1312 7.76117L23.9949 6.06064C24.5372 4.98944 24.0685 3.67723 22.9705 3.18849L16.1282 0.175744C15.5926 -0.0585812 14.97 -0.0585812 14.4344 0.175744L7.57873 3.19519C6.48075 3.67723 6.0121 4.98944 6.5544 6.06064L7.41805 7.76787C7.23729 8.62483 7.23729 9.16043 7.23729 9.75628C7.23729 10.2517 7.42475 10.7337 7.87331 11.1087C8.00721 15.5341 9.29265 17.797 10.6651 19.2632V21.5127C10.4509 21.6466 11.5221 20.9838 8.1545 23.0726L4.11742 24.2041C1.69383 24.887 0 27.1231 0 29.6471V33.3628C0 33.7578 0.32136 34.0792 0.716365 34.0792C1.11137 34.0792 1.41934 33.7578 1.41934 33.3628V29.6471C1.41934 27.7658 2.68469 26.0921 4.49904 25.5832L8.11433 24.5656L9.98893 27.585C10.558 28.5023 11.7631 28.8504 12.754 28.2679L13.2092 28.7232L12.687 33.4833C12.6468 33.8783 12.928 34.2265 13.3163 34.2733C13.7047 34.3135 14.0595 34.0323 14.1064 33.644L14.5281 29.8011C14.7625 29.8948 15.0102 29.9417 15.2713 29.9417C15.5324 29.9417 15.7801 29.8881 16.0144 29.8011L16.4362 33.644C16.4831 34.0859 16.9316 34.347 17.2262 34.2733C17.6212 34.2332 17.9024 33.8783 17.8556 33.4833L17.3333 28.7232L17.7886 28.2679C18.7728 28.8437 19.9846 28.509 20.5536 27.585L22.4282 24.5656L26.0502 25.5766C27.8646 26.0854 29.1299 27.7591 29.1299 29.6404V33.3561C29.1299 33.7511 29.4513 34.0725 29.8463 34.0725C30.2413 34.0725 30.5627 33.7511 30.5627 33.3561V29.6404C30.5627 27.1298 28.8688 24.8937 26.4452 24.2041ZM15.278 24.6995L12.0912 21.6198V20.5821C12.1112 20.6022 12.5598 20.9771 12.5665 20.9838C13.1356 21.4658 13.8519 21.7269 14.5951 21.7269H15.9743C16.7174 21.7269 17.4405 21.4591 18.0095 20.9771C18.4246 20.629 18.438 20.6089 18.4782 20.5888V21.6198L15.278 24.6995ZM21.8993 9.76297C21.8993 9.95043 21.7453 10.1111 21.5512 10.1111C21.6047 10.1111 20.9352 10.1044 9.00477 10.1111C8.81731 10.1111 8.65663 9.95713 8.65663 9.76297C8.65663 9.26085 8.65663 8.91941 8.74366 8.3905H21.8056C21.8993 8.91271 21.8993 9.29433 21.8993 9.76297ZM19.141 11.5371L18.5184 12.1397C18.0564 12.5883 17.4472 12.8293 16.8111 12.8293H13.7582C13.1155 12.8293 12.5063 12.5816 12.0443 12.133L11.4284 11.5371H19.141ZM9.37299 11.5371L11.0467 13.1573C11.7765 13.867 12.7339 14.2553 13.7515 14.2553H16.8044C17.8154 14.2553 18.7795 13.867 19.5092 13.164L21.1897 11.5371H21.2365C20.9687 16.7927 19.054 18.2254 17.0722 19.8925C16.7643 20.1536 16.3693 20.3009 15.9676 20.3009H14.5884C14.1867 20.3009 13.7917 20.1536 13.4837 19.8925C11.8568 18.4464 9.58054 17.1609 9.30604 11.5371H9.37299ZM8.1545 4.50071L15.0102 1.48127C15.1842 1.40762 15.3784 1.40762 15.5525 1.48127L22.4015 4.50071C22.7563 4.6547 22.9036 5.07648 22.7295 5.41792L21.9462 6.95777H8.60307L7.82645 5.41792C7.65238 5.07648 7.80636 4.6547 8.1545 4.50071ZM11.2074 26.8285L9.42655 23.9631C11.9707 22.3964 11.0936 22.932 11.2811 22.8182L14.1532 25.5966L12.0845 27.016C11.7899 27.2168 11.3949 27.1298 11.2074 26.8285ZM14.8361 28.3282L13.9658 27.4578L15.278 26.5607L16.5902 27.4578L15.7198 28.3282C15.4855 28.5625 15.0704 28.5625 14.8361 28.3282ZM19.3485 26.8285C19.1611 27.1231 18.7661 27.2168 18.4715 27.016L16.4027 25.5966L19.2749 22.8182C19.4624 22.932 18.592 22.3964 21.1227 23.9631L19.3485 26.8285Z" fill="#141C28"/>
</svg>
