<svg width="92" height="92" viewBox="0 0 92 92" fill="none" xmlns="http://www.w3.org/2000/svg">
<g filter="url(#filter0_d_243_2510)">
<circle cx="46" cy="45" r="40" fill="white"/>
</g>
<path d="M57.0658 49.7755L53.0288 48.644C49.6545 46.5619 50.7257 47.2247 50.5114 47.0908V44.8547C51.904 43.3818 53.1627 41.1657 53.3032 36.6801C53.6916 36.352 53.946 35.8633 53.946 35.3009C53.946 34.7318 53.946 34.1895 53.7518 33.3326L54.6155 31.6321C55.1578 30.5609 54.6891 29.2486 53.5911 28.7599L46.7488 25.7472C46.2132 25.5128 45.5906 25.5128 45.055 25.7472L38.1993 28.7666C37.1014 29.2486 36.6327 30.5609 37.175 31.6321L38.0387 33.3393C37.8579 34.1962 37.8579 34.7318 37.8579 35.3277C37.8579 35.8231 38.0454 36.3052 38.4939 36.6801C38.6278 41.1055 39.9133 43.3684 41.2857 44.8346V47.0841C41.0715 47.218 42.1427 46.5552 38.7751 48.644L34.738 49.7755C32.3144 50.4584 30.6206 52.6945 30.6206 55.2185V58.9342C30.6206 59.3292 30.942 59.6506 31.337 59.6506C31.732 59.6506 32.0399 59.3292 32.0399 58.9342V55.2185C32.0399 53.3372 33.3053 51.6635 35.1196 51.1547L38.7349 50.137L40.6095 53.1565C41.1786 54.0737 42.3837 54.4218 43.3746 53.8393L43.8298 54.2946L43.3076 59.0548C43.2675 59.4498 43.5486 59.7979 43.9369 59.8448C44.3253 59.8849 44.6801 59.6037 44.727 59.2154L45.1487 55.3725C45.3831 55.4662 45.6308 55.5131 45.8919 55.5131C46.153 55.5131 46.4007 55.4595 46.635 55.3725L47.0568 59.2154C47.1037 59.6573 47.5522 59.9184 47.8468 59.8448C48.2418 59.8046 48.523 59.4498 48.4762 59.0548L47.9539 54.2946L48.4092 53.8393C49.3934 54.4151 50.6052 54.0804 51.1742 53.1565L53.0488 50.137L56.6708 51.148C58.4852 51.6568 59.7505 53.3305 59.7505 55.2118V58.9275C59.7505 59.3225 60.0719 59.6439 60.4669 59.6439C60.8619 59.6439 61.1833 59.3225 61.1833 58.9275V55.2118C61.1833 52.7012 59.4894 50.4651 57.0658 49.7755ZM45.8986 50.2709L42.7118 47.1912V46.1535C42.7319 46.1736 43.1804 46.5485 43.1871 46.5552C43.7562 47.0372 44.4725 47.2983 45.2157 47.2983H46.5949C47.338 47.2983 48.0611 47.0305 48.6301 46.5485C49.0452 46.2004 49.0586 46.1803 49.0988 46.1602V47.1912L45.8986 50.2709ZM52.5199 35.3344C52.5199 35.5218 52.3659 35.6825 52.1718 35.6825C52.2254 35.6825 51.5559 35.6758 39.6254 35.6825C39.4379 35.6825 39.2772 35.5285 39.2772 35.3344C39.2772 34.8323 39.2772 34.4908 39.3643 33.9619H52.4262C52.5199 34.4841 52.5199 34.8657 52.5199 35.3344ZM49.7616 37.1086L49.139 37.7111C48.677 38.1597 48.0678 38.4007 47.4317 38.4007H44.3788C43.7361 38.4007 43.1269 38.153 42.6649 37.7044L42.049 37.1086H49.7616ZM39.9936 37.1086L41.6673 38.7287C42.3971 39.4384 43.3545 39.8267 44.3721 39.8267H47.425C48.436 39.8267 49.4001 39.4384 50.1298 38.7354L51.8103 37.1086H51.8571C51.5893 42.3641 49.6746 43.7969 47.6928 45.4639C47.3849 45.725 46.9899 45.8723 46.5882 45.8723H45.209C44.8073 45.8723 44.4123 45.725 44.1043 45.4639C42.4774 44.0178 40.2011 42.7324 39.9266 37.1086H39.9936ZM38.7751 30.0721L45.6308 27.0527C45.8049 26.979 45.999 26.979 46.1731 27.0527L53.0221 30.0721C53.3769 30.2261 53.5242 30.6479 53.3501 30.9893L52.5668 32.5292H39.2237L38.4471 30.9893C38.273 30.6479 38.427 30.2261 38.7751 30.0721ZM41.828 52.3999L40.0472 49.5345C42.5913 47.9678 41.7142 48.5034 41.9017 48.3896L44.7738 51.168L42.7051 52.5874C42.4105 52.7882 42.0155 52.7012 41.828 52.3999ZM45.4567 53.8996L44.5864 53.0293L45.8986 52.1321L47.2108 53.0293L46.3405 53.8996C46.1061 54.1339 45.691 54.1339 45.4567 53.8996ZM49.9691 52.3999C49.7817 52.6945 49.3867 52.7882 49.0921 52.5874L47.0233 51.168L49.8955 48.3896C50.083 48.5034 49.2126 47.9678 51.7433 49.5345L49.9691 52.3999Z" fill="#141C28"/>
<defs>
<filter id="filter0_d_243_2510" x="0" y="0" width="92" height="92" filterUnits="userSpaceOnUse" color-interpolation-filters="sRGB">
<feFlood flood-opacity="0" result="BackgroundImageFix"/>
<feColorMatrix in="SourceAlpha" type="matrix" values="0 0 0 0 0 0 0 0 0 0 0 0 0 0 0 0 0 0 127 0" result="hardAlpha"/>
<feOffset dy="1"/>
<feGaussianBlur stdDeviation="3"/>
<feComposite in2="hardAlpha" operator="out"/>
<feColorMatrix type="matrix" values="0 0 0 0 0 0 0 0 0 0 0 0 0 0 0 0 0 0 0.1 0"/>
<feBlend mode="normal" in2="BackgroundImageFix" result="effect1_dropShadow_243_2510"/>
<feBlend mode="normal" in="SourceGraphic" in2="effect1_dropShadow_243_2510" result="shape"/>
</filter>
</defs>
</svg>
