<svg width="12" height="20" viewBox="0 0 12 20" fill="none" xmlns="http://www.w3.org/2000/svg">
<path d="M7.58621 2.06897C7.58621 1.88606 7.51355 1.71064 7.38422 1.58131C7.25488 1.45197 7.07946 1.37931 6.89656 1.37931H2.06897C1.88606 1.37931 1.71065 1.45197 1.58131 1.58131C1.45198 1.71064 1.37932 1.88606 1.37932 2.06897V4.13793H7.58621V2.06897ZM5.86207 0.344828C5.86207 0.253374 5.82574 0.165665 5.76108 0.100998C5.69641 0.0363299 5.6087 0 5.51725 0H3.44828C3.35683 0 3.26912 0.0363299 3.20445 0.100998C3.13978 0.165665 3.10345 0.253374 3.10345 0.344828V0.689655H5.86207V0.344828ZM1.18656 4.82759C0.422971 5.63373 -0.0017979 6.70238 5.72037e-06 7.81276V18.2759C0.000553257 18.733 0.182378 19.1712 0.505598 19.4944C0.828818 19.8176 1.26704 19.9995 1.72414 20H7.24138C7.69849 19.9995 8.13671 19.8176 8.45993 19.4944C8.78315 19.1712 8.96498 18.733 8.96552 18.2759V7.81276C8.96733 6.70238 8.54256 5.63373 7.77897 4.82759H1.18656ZM9.82759 1.72414H8.2269C8.25795 1.8365 8.27441 1.9524 8.27587 2.06897V2.41379H9.82759C9.96477 2.41379 10.0963 2.46829 10.1933 2.56529C10.2903 2.66229 10.3448 2.79385 10.3448 2.93103C10.3448 3.06822 10.2903 3.19978 10.1933 3.29678C10.0963 3.39378 9.96477 3.44828 9.82759 3.44828H8.27587V4.13793H9.82759C10.1477 4.13793 10.4547 4.01078 10.681 3.78444C10.9073 3.5581 11.0345 3.25112 11.0345 2.93103C11.0345 2.61095 10.9073 2.30397 10.681 2.07763C10.4547 1.85129 10.1477 1.72414 9.82759 1.72414Z" fill="#A50808"/>
</svg>
