<svg width="20" height="16" viewBox="0 0 20 16" fill="none" xmlns="http://www.w3.org/2000/svg">
<path d="M10.0472 15.0512C11.3376 15.0512 12.3837 14.0051 12.3837 12.7147C12.3837 11.4243 11.3376 10.3782 10.0472 10.3782C8.75679 10.3782 7.71069 11.4243 7.71069 12.7147C7.71069 14.0051 8.75679 15.0512 10.0472 15.0512Z" fill="#A50808"/>
<path d="M15.6314 7.08535C15.5967 7.04971 15.5601 7.01793 15.5245 6.98518L15.4195 6.88598C15.4021 6.86768 15.3829 6.8542 15.3607 6.83686C13.9111 5.51538 12.0078 4.80366 10.0467 4.84976C8.0857 4.89587 6.21793 5.69624 4.83198 7.08438L4.49393 7.4234L4.02586 7.89147C3.75218 8.16679 3.59889 8.53942 3.59961 8.92761C3.60033 9.31581 3.75501 9.68787 4.02971 9.96216C4.1654 10.0984 4.32661 10.2066 4.50412 10.2805C4.68163 10.3545 4.87197 10.3927 5.06426 10.3931C5.25655 10.3934 5.44703 10.3559 5.62481 10.2826C5.8026 10.2093 5.9642 10.1018 6.1004 9.96602L6.90749 9.15893C7.79013 8.27896 8.9856 7.78474 10.232 7.78456C11.4783 7.78438 12.6739 8.27825 13.5568 9.15796L14.1395 9.72235C14.4124 9.9936 14.7819 10.1454 15.1667 10.1445C15.5515 10.1436 15.9202 9.99007 16.1919 9.71753C16.3273 9.58306 16.4347 9.4231 16.5079 9.24688C16.5812 9.07066 16.6188 8.88168 16.6186 8.69086C16.6198 8.50065 16.583 8.31211 16.5104 8.13631C16.4378 7.9605 16.3308 7.80097 16.1957 7.66707L15.6314 7.08535Z" fill="#A50808"/>
<path d="M19.6119 4.19694L19.1264 3.71153C19.1245 3.7096 19.1236 3.70671 19.1197 3.70575L18.7364 3.3205C18.6699 3.25521 18.597 3.1968 18.5187 3.14618C13.5943 -1.17723 6.10419 -1.04432 1.33679 3.54202C1.31367 3.56321 1.28767 3.57766 1.26455 3.60077L0.38812 4.47817C0.264473 4.60235 0.166528 4.7497 0.0998889 4.91178C0.03325 5.07386 -0.000774622 5.24749 -0.000237888 5.42273C0.000298846 5.59798 0.0353864 5.77139 0.103017 5.93306C0.170647 6.09473 0.269493 6.24148 0.393899 6.3649C0.517388 6.48925 0.664184 6.58802 0.825887 6.65556C0.98759 6.72311 1.16103 6.75811 1.33627 6.75856C1.51151 6.759 1.68512 6.72489 1.84717 6.65817C2.00922 6.59145 2.15651 6.49343 2.28064 6.36972L3.15707 5.49425C3.16285 5.48654 3.16766 5.4798 3.17344 5.47499C7.02878 1.75063 13.1445 1.72752 17.0307 5.3989L17.7203 6.08945C17.9714 6.33889 18.3112 6.47848 18.6651 6.47758C19.0191 6.47667 19.3582 6.33535 19.608 6.08464C19.8583 5.83456 19.9993 5.49543 20.0001 5.14158C20.0008 4.78773 19.8612 4.44803 19.6119 4.19694Z" fill="#A50808"/>
</svg>
