<svg width="28" height="20" viewBox="0 0 28 20" fill="none" xmlns="http://www.w3.org/2000/svg">
<path d="M26.9086 1.71686C25.8979 0.497419 24.0319 0 20.4681 0H7.53164C3.88631 0 1.98863 0.529505 0.981716 1.82778C0 3.09361 0 4.9587 0 7.54004V12.4601C0 17.4609 1.1648 20 7.53164 20H20.4682C23.5587 20 25.2712 19.5611 26.3791 18.4849C27.5152 17.3814 28 15.5795 28 12.4601V7.54004C28 4.8178 27.924 2.9417 26.9086 1.71686ZM17.9761 10.6793L12.1017 13.7954C11.964 13.8685 11.8101 13.9043 11.6548 13.8994C11.4995 13.8944 11.3481 13.8489 11.2152 13.7672C11.0823 13.6855 10.9725 13.5704 10.8962 13.433C10.82 13.2956 10.78 13.1406 10.7801 12.9829V6.77072C10.7801 6.61326 10.8201 6.45847 10.8961 6.32124C10.9722 6.18402 11.0818 6.06899 11.2144 5.98725C11.347 5.90551 11.4981 5.8598 11.6531 5.85454C11.8082 5.84928 11.9619 5.88464 12.0996 5.95721L17.974 9.0532C18.1206 9.13046 18.2436 9.24706 18.3294 9.3903C18.4153 9.53354 18.4608 9.69794 18.461 9.86561C18.4612 10.0333 18.4161 10.1978 18.3306 10.3413C18.2451 10.4847 18.1225 10.6016 17.9761 10.6793Z" fill="#C3C3C3"/>
</svg>
